<svg width="16" height="15" viewBox="0 0 16 15" fill="none" xmlns="http://www.w3.org/2000/svg">
<path fill-rule="evenodd" clip-rule="evenodd" d="M5.13979 9.4522L5.68729 6.8947C5.76699 6.5393 5.94653 6.21405 6.20478 5.9572L11.2073 0.999703C11.7146 0.482934 12.4033 0.184289 13.1273 0.167203C13.6733 0.159379 14.1998 0.369983 14.5898 0.752203C15.4419 1.75905 15.3319 3.26262 14.3423 4.1347L9.33979 9.1372C9.08294 9.39545 8.75769 9.57499 8.40229 9.6547L5.84479 10.2022H5.70229C5.51532 10.2094 5.33674 10.1243 5.22448 9.97462C5.11222 9.82493 5.08056 9.62969 5.13979 9.4522ZM6.99978 6.7597C6.8947 6.86154 6.8217 6.99189 6.78978 7.1347L6.42228 8.8822L8.16978 8.5072C8.31259 8.47528 8.44295 8.40229 8.54478 8.2972L13.5473 3.2947C14.0953 2.85597 14.204 2.06506 13.7948 1.4947C13.6156 1.32348 13.375 1.23158 13.1273 1.2397C12.7002 1.25685 12.2966 1.4398 12.0023 1.7497L6.99978 6.7597Z" fill="#A3AED0"/>
<path d="M14.2298 6.19766C13.9208 6.2017 13.6713 6.45118 13.6673 6.76016V11.0277C13.6774 11.6309 13.4447 12.2128 13.0217 12.6429C12.5986 13.073 12.0206 13.3152 11.4173 13.3152H4.2698C3.02283 13.2907 2.02364 12.2749 2.0198 11.0277V3.91016C2.04027 2.66147 3.05845 1.65999 4.3073 1.66016H8.5748C8.88546 1.66016 9.1373 1.40832 9.1373 1.09766C9.1373 0.786996 8.88546 0.535156 8.5748 0.535156H4.2698C2.39968 0.535043 0.877851 2.04015 0.8573 3.91016V11.0277C0.8573 12.9123 2.38513 14.4402 4.2698 14.4402H11.3873C13.269 14.436 14.7923 12.9094 14.7923 11.0277V6.76016C14.7883 6.45118 14.5388 6.2017 14.2298 6.19766Z" fill="#A3AED0"/>
</svg>
