<svg width="15" height="14" viewBox="0 0 15 14" fill="none" xmlns="http://www.w3.org/2000/svg">
<path d="M6.33333 3.50065H8.66667C8.98883 3.50065 9.25 3.23948 9.25 2.91732C9.25 2.59515 8.98883 2.33398 8.66667 2.33398H6.33333C6.01117 2.33398 5.75 2.59515 5.75 2.91732C5.75 3.23948 6.01117 3.50065 6.33333 3.50065Z" fill="#707EAE"/>
<path d="M8.66667 6.41797H6.33333C6.01117 6.41797 5.75 6.67914 5.75 7.0013C5.75 7.32347 6.01117 7.58464 6.33333 7.58464H8.66667C8.98883 7.58464 9.25 7.32347 9.25 7.0013C9.25 6.67914 8.98883 6.41797 8.66667 6.41797Z" fill="#707EAE"/>
<path d="M8.66667 10.5H6.33333C6.01117 10.5 5.75 10.7612 5.75 11.0833C5.75 11.4055 6.01117 11.6667 6.33333 11.6667H8.66667C8.98883 11.6667 9.25 11.4055 9.25 11.0833C9.25 10.7612 8.98883 10.5 8.66667 10.5Z" fill="#707EAE"/>
</svg>
