<svg width="26" height="26" viewBox="0 0 26 26" fill="none" xmlns="http://www.w3.org/2000/svg">
<path fill-rule="evenodd" clip-rule="evenodd" d="M15.7233 0H10.2767C4.60103 0 0 4.60103 0 10.2767V15.7233C0 21.399 4.60103 26 10.2767 26H15.7233C21.309 26 25.8539 21.5437 25.9965 15.9923H25.9967V15.9849C25.9989 15.898 26 15.8108 26 15.7233V10.2767C26 7.55113 24.9173 4.93722 22.99 3.00997C21.0628 1.08272 18.4489 0 15.7233 0ZM25.9967 13.9978V15.9849C25.9967 15.9874 25.9966 15.9899 25.9965 15.9923H16.9193C15.8148 15.9923 14.9193 15.0969 14.9193 13.9923V12.2146C14.9193 11.11 15.8148 10.2146 16.9193 10.2146H25.9967V12.0718H17.8129C17.2811 12.0718 16.85 12.503 16.85 13.0348C16.85 13.5666 17.2811 13.9978 17.8129 13.9978H25.9967ZM25.9967 13.9978V12.0718H25.9981V13.9978H25.9967Z" fill="#24B389"/>
</svg>
