<svg width="32" height="32" viewBox="0 0 32 32" fill="none" xmlns="http://www.w3.org/2000/svg">
<path d="M18.7233 3H13.2767C7.60103 3 3 7.60103 3 13.2767V18.7233C3 24.399 7.60103 29 13.2767 29H18.7233C24.399 29 29 24.399 29 18.7233V13.2767C29 10.5511 27.9173 7.93722 25.99 6.00997C24.0628 4.08272 21.4489 3 18.7233 3Z" fill="#A3AED0"/>
<path d="M16.15 15.4586C17.5146 15.4588 18.6273 14.3647 18.65 13.0003V12.0669C18.6501 11.513 18.4278 10.9822 18.033 10.5937C17.6381 10.2051 17.1039 9.99133 16.55 10.0003H15.7583C14.6202 10.0049 13.7 10.9288 13.7 12.0669V13.0003C13.7222 14.3455 14.8049 15.4319 16.15 15.4586Z" fill="#F4F7FE"/>
<path d="M24.9833 19.759L24.8833 18.5007C24.7753 17.8688 24.2327 17.4032 23.5917 17.3924H19.9917C19.9365 17.3838 19.8802 17.3838 19.825 17.3924C19.5056 17.0336 19.047 16.8301 18.5667 16.834H13.7417C13.233 16.8318 12.7512 17.062 12.4333 17.459C12.2972 17.4093 12.1533 17.3839 12.0083 17.384H8.40835C7.76467 17.3956 7.22119 17.8655 7.11668 18.5007L7.01668 19.8007C6.93293 20.1994 7.02916 20.6147 7.2797 20.9359C7.53024 21.2571 7.90962 21.4515 8.31668 21.4674H12.1083C12.1831 21.476 12.2586 21.476 12.3333 21.4674C12.6639 21.8322 13.1327 22.0409 13.625 22.0424H18.6833C19.1606 22.0401 19.6158 21.8411 19.9417 21.4924H23.6833C24.1052 21.4807 24.4986 21.2772 24.7518 20.9396C25.005 20.602 25.0903 20.1673 24.9833 19.759Z" fill="#F4F7FE"/>
<path d="M21.8334 16.0917C22.8459 16.0917 23.6667 15.2709 23.6667 14.2584V13.55C23.6669 13.1338 23.4987 12.7353 23.2005 12.4449C22.9023 12.1546 22.4994 11.9971 22.0834 12.0084H21.5C20.6486 12.0084 19.9584 12.6986 19.9584 13.55V14.2584C19.9582 14.7519 20.1571 15.2247 20.51 15.5697C20.8629 15.9147 21.34 16.1029 21.8334 16.0917V16.0917Z" fill="#F4F7FE"/>
<path d="M10.2083 16.0921C11.2209 16.0921 12.0417 15.2713 12.0417 14.2588V13.5505C12.0417 12.699 11.3514 12.0088 10.5 12.0088H9.91667C9.06523 12.0088 8.375 12.699 8.375 13.5505V14.2588C8.375 15.2713 9.19581 16.0921 10.2083 16.0921V16.0921Z" fill="#F4F7FE"/>
</svg>
