<svg width="26" height="26" viewBox="0 0 26 26" fill="none" xmlns="http://www.w3.org/2000/svg">
<path fill-rule="evenodd" clip-rule="evenodd" d="M15.7233 0H10.2767C4.60103 0 0 4.60103 0 10.2767V15V15.7233C0 21.399 4.60103 26 10.2767 26H15.7233C21.3065 26 25.8497 21.5478 25.9963 16H26V15.7233C26 15.8158 25.9988 15.9081 25.9963 16H25H23C22.4477 16 22 15.5523 22 15C22 14.4477 22.4477 14 23 14H25H26V10.2767C26 7.55113 24.9173 4.93722 22.99 3.00997C21.0628 1.08272 18.4489 0 15.7233 0ZM0 15C0 14.4477 0.447715 14 1 14H16.5858L14.2929 11.7071C13.9024 11.3166 13.9024 10.6834 14.2929 10.2929C14.6834 9.90237 15.3166 9.90237 15.7071 10.2929L19.7071 14.2929C20.0976 14.6834 20.0976 15.3166 19.7071 15.7071L15.7071 19.7071C15.3166 20.0976 14.6834 20.0976 14.2929 19.7071C13.9024 19.3166 13.9024 18.6834 14.2929 18.2929L16.5858 16H1C0.447715 16 0 15.5523 0 15Z" fill="#A3AED0"/>
</svg>
