<svg width="21" height="21" viewBox="0 0 21 21" fill="none" xmlns="http://www.w3.org/2000/svg">
<path fill-rule="evenodd" clip-rule="evenodd" d="M17.5888 13.8993C17.2186 13.5827 17.0054 13.1199 17.0055 12.6327V8.61602C17.0055 5.32435 14.0221 2.66602 10.3388 2.66602C6.65547 2.66602 3.67214 5.32435 3.67214 8.61602V12.6327C3.67217 13.1199 3.45904 13.5827 3.08881 13.8993C1.83047 15.0243 2.72214 16.941 4.50547 16.941H7.67214C8.07617 18.0663 9.14314 18.8169 10.3388 18.8169C11.5345 18.8169 12.6014 18.0663 13.0055 16.941H16.1721C17.9555 16.941 18.8471 15.0243 17.5888 13.8993ZM10.3388 17.566C9.8428 17.5641 9.3754 17.3335 9.07214 16.941H11.5721C11.2785 17.3273 10.824 17.5577 10.3388 17.566ZM16.1805 15.691C16.4834 15.7185 16.7719 15.556 16.9055 15.2827C16.9703 15.118 16.9113 14.9305 16.7638 14.8327C16.1359 14.2726 15.7729 13.474 15.7638 12.6327V8.61602C15.7638 6.02435 13.3305 3.91602 10.3471 3.91602C7.36381 3.91602 4.93047 6.02435 4.93047 8.61602V12.6327C4.92133 13.474 4.55834 14.2726 3.93047 14.8327C3.77991 14.928 3.7172 15.1161 3.78047 15.2827C3.91405 15.556 4.20251 15.7185 4.50547 15.691H16.1805Z" fill="#A3AED0"/>
<circle cx="16.5" cy="4.5" r="3.5" fill="#FF0000" stroke="#E5E5E5" stroke-width="2"/>
</svg>
