<svg width="27" height="27" viewBox="0 0 27 27" fill="none" xmlns="http://www.w3.org/2000/svg">
<ellipse cx="13.7333" cy="13.7471" rx="2.61333" ry="2.61333" fill="#A3AED0"/>
<path fill-rule="evenodd" clip-rule="evenodd" d="M23.6353 9.64136C23.8892 10.2602 24.4911 10.665 25.16 10.667C25.5985 10.667 26.019 10.8412 26.3291 11.1512C26.6392 11.4613 26.8134 11.8818 26.8134 12.3203V15.1737C26.8134 16.0868 26.0731 16.827 25.16 16.827C24.4911 16.8289 23.8892 17.2338 23.6353 17.8526C23.3813 18.4715 23.5253 19.1824 24 19.6537C24.6369 20.3063 24.6369 21.3477 24 22.0003L22 24.0003C21.3474 24.6372 20.306 24.6372 19.6534 24.0003C19.1821 23.5256 18.4712 23.3816 17.8523 23.6356C17.2335 23.8896 16.8286 24.4914 16.8267 25.1603C16.8267 26.0734 16.0865 26.8137 15.1734 26.8137H12.32C11.4069 26.8137 10.6667 26.0734 10.6667 25.1603C10.6647 24.4914 10.2599 23.8896 9.64105 23.6356C9.0222 23.3816 8.3113 23.5256 7.84002 24.0003C7.18742 24.6372 6.14596 24.6372 5.49335 24.0003L3.49335 22.0003C2.85651 21.3477 2.85651 20.3063 3.49335 19.6537C3.96982 19.1807 4.11295 18.4665 3.85556 17.8465C3.59818 17.2264 2.99138 16.8235 2.32002 16.827C1.40691 16.827 0.666687 16.0868 0.666687 15.1737V12.3203C0.666687 11.4072 1.40691 10.667 2.32002 10.667C2.98895 10.665 3.5908 10.2602 3.84476 9.64136C4.09872 9.02251 3.95475 8.3116 3.48002 7.84033C2.84318 7.18772 2.84318 6.14626 3.48002 5.49366L5.48002 3.49366C6.13262 2.85682 7.17409 2.85682 7.82669 3.49366C8.29967 3.97012 9.01382 4.11326 9.63389 3.85587C10.254 3.59848 10.6568 2.99168 10.6534 2.32033C10.6534 1.40721 11.3936 0.666992 12.3067 0.666992H15.1734C15.6118 0.666992 16.0324 0.841182 16.3424 1.15124C16.6525 1.4613 16.8267 1.88183 16.8267 2.32033C16.8232 2.99168 17.2261 3.59848 17.8461 3.85587C18.4662 4.11326 19.1804 3.97012 19.6534 3.49366C20.306 2.85682 21.3474 2.85682 22 3.49366L24 5.49366C24.6369 6.14626 24.6369 7.18772 24 7.84033C23.5253 8.3116 23.3813 9.02251 23.6353 9.64136ZM9.12002 13.747C9.12002 16.2949 11.1855 18.3603 13.7334 18.3603C16.2812 18.3603 18.3467 16.2949 18.3467 13.747C18.3467 11.1991 16.2812 9.13366 13.7334 9.13366C11.1855 9.13366 9.12002 11.1991 9.12002 13.747Z" fill="#A3AED0"/>
</svg>
