<svg width="21" height="20" viewBox="0 0 21 20" fill="none" xmlns="http://www.w3.org/2000/svg">
<path fill-rule="evenodd" clip-rule="evenodd" d="M13.1636 12.6919C13.5398 12.6929 13.9086 12.7966 14.2303 12.9919H14.2219C15.1916 13.5702 15.5209 14.8177 14.963 15.7992C14.4051 16.7808 13.1648 17.1362 12.1718 16.599C11.1787 16.0619 10.7974 14.8293 11.3136 13.8252L8.87193 11.3335C8.69562 11.4409 8.50477 11.5223 8.30526 11.5752C8.13913 11.6178 7.96845 11.6402 7.79693 11.6419C6.73966 11.6472 5.84602 10.8598 5.71829 9.81024C5.59056 8.7607 6.26924 7.78191 7.29693 7.53352C7.46057 7.49361 7.6285 7.47402 7.79693 7.47519C8.22699 7.47552 8.64632 7.60948 8.99693 7.85852L11.3136 5.54186C10.9685 4.89696 10.9899 4.11766 11.37 3.49272C11.7501 2.86779 12.4322 2.49032 13.1636 2.50019C13.5391 2.49829 13.908 2.59916 14.2303 2.79186C14.8853 3.1521 15.2983 3.83441 15.3138 4.58176C15.3293 5.32912 14.945 6.02798 14.3055 6.4151C13.666 6.80221 12.8686 6.81876 12.2136 6.45852L9.7636 8.90852C9.79079 8.96771 9.81309 9.02903 9.83026 9.09186C9.94097 9.54039 9.89692 10.0132 9.70526 10.4335L12.2053 12.9335C12.5013 12.7788 12.8296 12.696 13.1636 12.6919ZM13.1636 3.75019C12.8711 3.74849 12.599 3.9003 12.4469 4.15019C12.3333 4.34069 12.3003 4.56862 12.3553 4.78352C12.4034 4.99809 12.5395 5.18256 12.7303 5.29186C12.8581 5.3711 13.0049 5.4143 13.1553 5.41686C13.4495 5.4168 13.7219 5.26161 13.8719 5.00852C14.108 4.61488 13.9813 4.10443 13.5886 3.86686C13.461 3.78809 13.3135 3.7476 13.1636 3.75019ZM7.79693 10.3919C7.40468 10.4033 7.05761 10.1395 6.9636 9.75852C6.91113 9.54252 6.94713 9.31451 7.0636 9.12519C7.17726 8.93832 7.35984 8.80363 7.57193 8.75019H7.77193C8.16418 8.73876 8.51125 9.00254 8.60526 9.38352C8.65791 9.59581 8.62499 9.82029 8.5136 10.0085L8.4636 10.0669C8.35305 10.225 8.19106 10.3398 8.00526 10.3919H7.79693ZM13.1553 15.5669C13.4478 15.5686 13.7198 15.4167 13.8719 15.1669C14.0807 14.7826 13.957 14.3024 13.5886 14.0669C13.4608 13.9876 13.3139 13.9444 13.1636 13.9419C12.8694 13.9419 12.597 14.0971 12.4469 14.3502C12.2108 14.7438 12.3375 15.2543 12.7303 15.4919C12.8621 15.5562 13.0094 15.5821 13.1553 15.5669Z" fill="#A3AED0"/>
</svg>
