<svg width="14" height="14" viewBox="0 0 14 14" fill="none" xmlns="http://www.w3.org/2000/svg">
<path d="M3.90238 10.5349C3.66076 10.5349 3.46488 10.339 3.46488 10.0974V4.33402C3.4633 4.21751 3.50888 4.10531 3.59128 4.02292C3.67367 3.94052 3.78587 3.89494 3.90238 3.89652V3.89652C4.14401 3.89652 4.33988 4.0924 4.33988 4.33402V9.65986H9.66572C9.90734 9.65986 10.1032 9.85573 10.1032 10.0974C10.1032 10.339 9.90734 10.5349 9.66572 10.5349H3.90238Z" fill="#24B389"/>
<path d="M3.90245 10.535C3.78632 10.5356 3.67488 10.4893 3.59328 10.4067C3.42268 10.2359 3.42268 9.95917 3.59328 9.78836L9.78828 3.59336C9.89735 3.47631 10.0616 3.42813 10.2166 3.46772C10.3716 3.50731 10.4927 3.62835 10.5323 3.78336C10.5718 3.93837 10.5237 4.10263 10.4066 4.21169L4.21161 10.4067C4.1304 10.4899 4.0187 10.5362 3.90245 10.535Z" fill="#24B389"/>
<path d="M3.90234 10.9723C3.41909 10.9723 3.02734 10.5806 3.02734 10.0973V4.32817C3.02889 4.0961 3.12256 3.87416 3.28774 3.71116C3.45293 3.54815 3.67611 3.45745 3.90818 3.459V3.459C4.39143 3.459 4.78318 3.85075 4.78318 4.334V9.22234H9.67151C10.1548 9.22234 10.5465 9.61409 10.5465 10.0973C10.5465 10.5806 10.1548 10.9723 9.67151 10.9723H3.90234Z" fill="#24B389"/>
<path d="M3.90255 10.9727C3.67069 10.9719 3.44851 10.8796 3.28421 10.716C3.11891 10.5527 3.02588 10.3301 3.02588 10.0977C3.02588 9.86535 3.11891 9.64267 3.28421 9.47938L9.47922 3.27854C9.82844 2.97602 10.3521 2.99476 10.6788 3.32147C11.0055 3.64818 11.0242 4.17181 10.7217 4.52104L4.52088 10.716C4.35731 10.8807 4.13466 10.9732 3.90255 10.9727Z" fill="#24B389"/>
</svg>
