<svg width="14" height="12" viewBox="0 0 14 12" fill="none" xmlns="http://www.w3.org/2000/svg">
<path d="M13.005 6.62971L10.2925 3.92305C10.1848 3.81314 10.038 3.75024 9.88418 3.74805C9.72828 3.74869 9.57913 3.81171 9.47001 3.92305L6.75751 6.62971C6.64708 6.73924 6.58496 6.88834 6.58496 7.04388C6.58496 7.19942 6.64708 7.34852 6.75751 7.45805C6.86704 7.56848 7.01614 7.6306 7.17168 7.6306C7.32722 7.6306 7.47631 7.56848 7.58584 7.45805L9.30084 5.74305V10.6664C9.30084 10.9885 9.56201 11.2497 9.88418 11.2497C10.2063 11.2497 10.4675 10.9885 10.4675 10.6664V5.74305L12.1767 7.45805C12.4054 7.68679 12.7763 7.68679 13.005 7.45805C13.2337 7.22931 13.2337 6.85845 13.005 6.62971Z" fill="#2E2482"/>
<path d="M7.00206 4.41917C6.89253 4.30873 6.74343 4.24662 6.58789 4.24662C6.43236 4.24662 6.28326 4.30873 6.17373 4.41917L4.46456 6.13417V1.33333C4.46456 1.01117 4.20339 0.75 3.88123 0.75C3.55906 0.75 3.29789 1.01117 3.29789 1.33333V6.13417L1.58289 4.41917C1.35416 4.19043 0.983299 4.19043 0.754561 4.41917C0.525823 4.6479 0.525823 5.01876 0.754561 5.2475L3.46706 7.95417C3.69458 8.18034 4.06204 8.18034 4.28956 7.95417L7.00206 5.2475C7.11249 5.13797 7.17461 4.98887 7.17461 4.83333C7.17461 4.67779 7.11249 4.5287 7.00206 4.41917Z" fill="#2E2482"/>
</svg>
