<svg width="24" height="24" viewBox="0 0 24 24" fill="none" xmlns="http://www.w3.org/2000/svg">
<path d="M15.35 16.41C15.6455 16.6854 16.106 16.6773 16.3917 16.3917C16.6773 16.106 16.6854 15.6455 16.41 15.35L12.63 11.57V6.88004C12.63 6.46582 12.2942 6.13004 11.88 6.13004C11.4658 6.13004 11.13 6.46582 11.13 6.88004V11.88C11.1302 12.0789 11.2093 12.2695 11.35 12.41L15.35 16.41Z" fill="#707EAE"/>
<path fill-rule="evenodd" clip-rule="evenodd" d="M14 22H9.76C7.63827 22 5.60344 21.1571 4.10315 19.6569C2.60285 18.1566 1.76 16.1217 1.76 14V9.76C1.76 5.34172 5.34172 1.76 9.76 1.76H14C18.4183 1.76 22 5.34172 22 9.76V14C22 18.4183 18.4183 22 14 22ZM9.76 3.26C6.17243 3.26551 3.26551 6.17243 3.26 9.76V14C3.26551 17.5876 6.17243 20.4945 9.76 20.5H14C17.5876 20.4945 20.4945 17.5876 20.5 14V9.76C20.4945 6.17243 17.5876 3.26551 14 3.26H9.76Z" fill="#707EAE"/>
</svg>
