<svg width="24" height="24" viewBox="0 0 24 24" fill="none" xmlns="http://www.w3.org/2000/svg">
<path d="M22.2939 13.0796L17.6439 8.43965C17.4593 8.25123 17.2077 8.14341 16.9439 8.13965C16.6766 8.14076 16.421 8.24879 16.2339 8.43965L11.5839 13.0796C11.3946 13.2674 11.2881 13.523 11.2881 13.7896C11.2881 14.0563 11.3946 14.3119 11.5839 14.4996C11.7717 14.689 12.0272 14.7954 12.2939 14.7954C12.5605 14.7954 12.8161 14.689 13.0039 14.4996L15.9439 11.5596V19.9996C15.9439 20.5519 16.3916 20.9997 16.9439 20.9997C17.4962 20.9997 17.9439 20.5519 17.9439 19.9996V11.5596L20.8739 14.4996C21.266 14.8918 21.9018 14.8918 22.2939 14.4996C22.686 14.1075 22.686 13.4718 22.2939 13.0796Z" fill="white"/>
<path d="M12.0041 9.29C11.8163 9.10069 11.5607 8.9942 11.2941 8.9942C11.0275 8.9942 10.7719 9.10069 10.5841 9.29L7.65409 12.23V4C7.65409 3.44772 7.20638 3 6.65409 3C6.10181 3 5.65409 3.44772 5.65409 4V12.23L2.71409 9.29C2.32197 8.89788 1.68621 8.89788 1.29409 9.29C0.901969 9.68212 0.901969 10.3179 1.29409 10.71L5.94409 15.35C6.33413 15.7377 6.96405 15.7377 7.35409 15.35L12.0041 10.71C12.1934 10.5222 12.2999 10.2666 12.2999 10C12.2999 9.73336 12.1934 9.47777 12.0041 9.29Z" fill="white"/>
</svg>
