<svg width="14" height="14" viewBox="0 0 14 14" fill="none" xmlns="http://www.w3.org/2000/svg">
<path d="M13.005 7.62971L10.2925 4.92305C10.1848 4.81314 10.038 4.75024 9.88418 4.74805C9.72828 4.74869 9.57913 4.81171 9.47001 4.92305L6.75751 7.62971C6.64708 7.73924 6.58496 7.88834 6.58496 8.04388C6.58496 8.19942 6.64708 8.34852 6.75751 8.45805C6.86704 8.56848 7.01614 8.6306 7.17168 8.6306C7.32722 8.6306 7.47631 8.56848 7.58584 8.45805L9.30084 6.74305V11.6664C9.30084 11.9885 9.56201 12.2497 9.88418 12.2497C10.2063 12.2497 10.4675 11.9885 10.4675 11.6664V6.74305L12.1767 8.45805C12.4054 8.68679 12.7763 8.68679 13.005 8.45805C13.2337 8.22931 13.2337 7.85845 13.005 7.62971Z" fill="#2E2482"/>
<path d="M7.00206 5.41917C6.89253 5.30873 6.74343 5.24662 6.58789 5.24662C6.43236 5.24662 6.28326 5.30873 6.17373 5.41917L4.46456 7.13417V2.33333C4.46456 2.01117 4.20339 1.75 3.88123 1.75C3.55906 1.75 3.29789 2.01117 3.29789 2.33333V7.13417L1.58289 5.41917C1.35416 5.19043 0.983299 5.19043 0.754561 5.41917C0.525823 5.6479 0.525823 6.01876 0.754561 6.2475L3.46706 8.95417C3.69458 9.18034 4.06204 9.18034 4.28956 8.95417L7.00206 6.2475C7.11249 6.13797 7.17461 5.98887 7.17461 5.83333C7.17461 5.67779 7.11249 5.5287 7.00206 5.41917Z" fill="#2E2482"/>
</svg>
