<svg width="22" height="18" viewBox="0 0 22 18" fill="none" xmlns="http://www.w3.org/2000/svg">
<path d="M21.2939 10.0796L16.6439 5.43965C16.4593 5.25123 16.2077 5.14341 15.9439 5.13965C15.6766 5.14076 15.421 5.24879 15.2339 5.43965L10.5839 10.0796C10.3946 10.2674 10.2881 10.523 10.2881 10.7896C10.2881 11.0563 10.3946 11.3119 10.5839 11.4996C10.7717 11.689 11.0272 11.7954 11.2939 11.7954C11.5605 11.7954 11.8161 11.689 12.0039 11.4996L14.9439 8.55965V16.9996C14.9439 17.5519 15.3916 17.9997 15.9439 17.9997C16.4962 17.9997 16.9439 17.5519 16.9439 16.9996V8.55965L19.8739 11.4996C20.266 11.8918 20.9018 11.8918 21.2939 11.4996C21.686 11.1075 21.686 10.4718 21.2939 10.0796Z" fill="white"/>
<path d="M11.0041 6.29C10.8163 6.10069 10.5607 5.9942 10.2941 5.9942C10.0275 5.9942 9.77186 6.10069 9.58409 6.29L6.65409 9.23V1C6.65409 0.447715 6.20638 0 5.65409 0C5.10181 0 4.65409 0.447715 4.65409 1V9.23L1.71409 6.29C1.32197 5.89788 0.686214 5.89788 0.294092 6.29C-0.0980305 6.68212 -0.0980305 7.31788 0.294092 7.71L4.94409 12.35C5.33413 12.7377 5.96405 12.7377 6.35409 12.35L11.0041 7.71C11.1934 7.52223 11.2999 7.26664 11.2999 7C11.2999 6.73336 11.1934 6.47777 11.0041 6.29Z" fill="white"/>
</svg>
