<svg width="25" height="24" viewBox="0 0 25 24" fill="none" xmlns="http://www.w3.org/2000/svg">
<rect x="0.780273" y="24" width="24" height="24" rx="12" transform="rotate(-90 0.780273 24)" fill="#2E2482"/>
<path d="M13.5033 5.10612L10.3962 8.21996C10.27 8.3436 10.1978 8.51208 10.1953 8.68871C10.1961 8.86767 10.2684 9.03889 10.3962 9.16416L13.5033 12.278C13.6291 12.4048 13.8002 12.4761 13.9788 12.4761C14.1573 12.4761 14.3285 12.4048 14.4542 12.278C14.581 12.1523 14.6523 11.9811 14.6523 11.8025C14.6523 11.624 14.581 11.4528 14.4542 11.3271L12.4855 9.35835L18.1373 9.35835C18.5071 9.35835 18.8069 9.05854 18.8069 8.68871C18.8069 8.31888 18.5071 8.01907 18.1373 8.01907L12.4855 8.01907L14.4542 6.05701C14.7168 5.79443 14.7168 5.3687 14.4542 5.10612C14.1917 4.84354 13.7659 4.84354 13.5033 5.10612Z" fill="white"/>
<path d="M10.965 11.9969C10.8382 12.1226 10.7669 12.2938 10.7669 12.4724C10.7669 12.6509 10.8382 12.8221 10.965 12.9478L12.9337 14.9099L7.42257 14.9099C7.05274 14.9099 6.75293 15.2097 6.75293 15.5795C6.75293 15.9493 7.05274 16.2491 7.42257 16.2491L12.9337 16.2491L10.965 18.2179C10.7024 18.4805 10.7024 18.9062 10.965 19.1688C11.2276 19.4314 11.6533 19.4314 11.9159 19.1688L15.023 16.0549C15.2827 15.7938 15.2827 15.3719 15.023 15.1108L11.9159 11.9969C11.7901 11.8701 11.619 11.7988 11.4404 11.7988C11.2619 11.7988 11.0907 11.8701 10.965 11.9969Z" fill="white"/>
</svg>
