<svg width="20" height="18" viewBox="0 0 20 18" fill="none" xmlns="http://www.w3.org/2000/svg">
<path d="M18.5805 7.94008L11.5805 0.940082C11.2 0.56138 10.6464 0.414433 10.1282 0.554595C9.60994 0.694756 9.20587 1.10073 9.06815 1.61959C8.93043 2.13846 9.07998 2.69138 9.46047 3.07008L13.8905 7.49008H2.48047C1.65204 7.49008 0.980469 8.16165 0.980469 8.99008C0.980469 9.81851 1.65204 10.4901 2.48047 10.4901H13.8905L9.46047 14.9101C9.03203 15.3391 8.90395 15.9838 9.13589 16.5439C9.36784 17.1041 9.91419 17.4695 10.5205 17.4701C10.923 17.4641 11.3058 17.2944 11.5805 17.0001L18.5805 10.0001C19.1654 9.41445 19.1654 8.46572 18.5805 7.88008V7.94008Z" fill="#F4F7FE"/>
</svg>
