<svg width="20" height="20" viewBox="0 0 20 20" fill="none" xmlns="http://www.w3.org/2000/svg">
<path d="M14.4164 14.4327C14.0712 14.4327 13.7914 14.1528 13.7914 13.8077V6.19932H6.19141C5.84623 6.19932 5.56641 5.9195 5.56641 5.57432C5.56641 5.22914 5.84623 4.94932 6.19141 4.94932H14.4247C14.5894 4.94633 14.7485 5.00934 14.8664 5.12432C14.9857 5.24345 15.0518 5.40573 15.0497 5.57432V13.8077C15.0521 13.9756 14.9858 14.1372 14.8663 14.2551C14.7468 14.3731 14.5843 14.4372 14.4164 14.4327Z" fill="#2E2482"/>
<path d="M5.57592 15.0492C5.41123 15.0522 5.25219 14.9892 5.13425 14.8742C5.01464 14.7567 4.94727 14.596 4.94727 14.4284C4.94727 14.2607 5.01464 14.1 5.13425 13.9825L13.9843 5.13253C14.1401 4.96532 14.3747 4.89649 14.5962 4.95305C14.8176 5.0096 14.9905 5.18252 15.0471 5.40396C15.1036 5.6254 15.0348 5.86006 14.8676 6.01587L6.01758 14.8742C5.89817 14.9869 5.74011 15.0495 5.57592 15.0492Z" fill="#2E2482"/>
<path d="M14.4164 15.0578C13.7261 15.0578 13.1664 14.4982 13.1664 13.8078V6.82448H6.19141C5.50105 6.82448 4.94141 6.26484 4.94141 5.57448C4.94141 4.88412 5.50105 4.32448 6.19141 4.32448H14.4331C14.7667 4.3176 15.0886 4.44708 15.3245 4.68301C15.5605 4.91894 15.69 5.2409 15.6831 5.57448V13.8078C15.6831 14.1422 15.5491 14.4627 15.3111 14.6976C15.073 14.9325 14.7508 15.0623 14.4164 15.0578Z" fill="#2E2482"/>
<path d="M5.57535 15.6742C5.24478 15.678 4.92653 15.5489 4.69201 15.3158C4.45537 15.0811 4.32227 14.7616 4.32227 14.4283C4.32227 14.0951 4.45537 13.7756 4.69201 13.5408L13.542 4.69085C13.8536 4.35643 14.3229 4.21877 14.7658 4.33187C15.2087 4.44498 15.5546 4.79081 15.6677 5.2337C15.7808 5.67659 15.6431 6.1459 15.3087 6.45752L6.45868 15.3158C6.22213 15.5458 5.90522 15.6743 5.57535 15.6742Z" fill="#2E2482"/>
</svg>
