<svg width="25" height="24" viewBox="0 0 25 24" fill="none" xmlns="http://www.w3.org/2000/svg">
<path fill-rule="evenodd" clip-rule="evenodd" d="M16.5385 2C19.8522 2 22.5385 4.68629 22.5385 8V16C22.5385 19.3137 19.8522 22 16.5385 22H8.53851C5.22481 22 2.53851 19.3137 2.53851 16V8C2.53851 4.68629 5.22481 2 8.53851 2H16.5385ZM12.5386 5.69238C10.4668 5.69238 9.14072 6.92681 8.66081 8.43754C8.5354 8.83231 8.75377 9.254 9.14854 9.37941C9.54331 9.50481 9.965 9.28645 10.0904 8.89167C10.3881 7.95449 11.1706 7.19238 12.5386 7.19238C13.4462 7.19238 14.0718 7.52527 14.478 7.98232C14.8966 8.45317 15.1219 9.10219 15.1219 9.77572C15.1219 10.2674 15.0091 10.5801 14.8585 10.8155C14.6973 11.0673 14.4614 11.2816 14.1243 11.5362C14.0379 11.6015 13.9441 11.6693 13.8449 11.7409C13.2153 12.1958 12.3718 12.8053 11.8591 13.9027C11.6838 14.278 11.8458 14.7243 12.2211 14.8997C12.5964 15.075 13.0427 14.9129 13.2181 14.5376C13.5551 13.8164 14.0615 13.4449 14.6879 12.9854C14.7978 12.9048 14.9114 12.8215 15.0284 12.7331C15.4009 12.4517 15.8128 12.1072 16.122 11.6239C16.4418 11.1241 16.6219 10.5253 16.6219 9.77572C16.6219 8.78258 16.2917 7.76492 15.5991 6.98578C14.8943 6.19283 13.8532 5.69238 12.5386 5.69238ZM12.5386 16.8035C12.1244 16.8035 11.7886 17.1393 11.7886 17.5535C11.7886 17.9677 12.1244 18.3035 12.5386 18.3035H12.5497C12.9639 18.3035 13.2997 17.9677 13.2997 17.5535C13.2997 17.1393 12.9639 16.8035 12.5497 16.8035H12.5386Z" fill="#A3AED0"/>
</svg>
