<svg width="26" height="25" viewBox="0 0 26 25" fill="none" xmlns="http://www.w3.org/2000/svg">
<path fill-rule="evenodd" clip-rule="evenodd" d="M20.4835 14.97C20.4864 15.5511 20.7419 16.1023 21.1835 16.48C22.6935 17.83 21.6235 20.14 19.4835 20.14H15.6835C15.191 21.4844 13.9153 22.3814 12.4835 22.39C11.0471 22.3962 9.76374 21.4938 9.28353 20.14H5.48353C3.34353 20.14 2.27353 17.83 3.78353 16.48C4.22516 16.1023 4.48066 15.5511 4.48353 14.97V10.14C4.48353 6.2 8.06353 3 12.4835 3C16.9035 3 20.4835 6.2 20.4835 10.14V14.97ZM10.9635 20.14C11.3274 20.611 11.8883 20.8878 12.4835 20.89C13.0646 20.8756 13.6083 20.6001 13.9635 20.14H10.9635Z" fill="#A3AED0"/>
<circle cx="19.5385" cy="6.5" r="5" fill="#FF0000" stroke="white" stroke-width="2"/>
</svg>
