<svg width="25" height="24" viewBox="0 0 25 24" fill="none" xmlns="http://www.w3.org/2000/svg">
<path fill-rule="evenodd" clip-rule="evenodd" d="M16.5385 2C19.8522 2 22.5385 4.68629 22.5385 8V16C22.5385 19.3137 19.8522 22 16.5385 22H8.53851C5.22481 22 2.53851 19.3137 2.53851 16V8C2.53851 4.68629 5.22481 2 8.53851 2H16.5385ZM18.1992 15.7783C17.0794 17.158 15.3892 18 13.5385 18C10.2224 18 7.53851 15.3119 7.53851 12C7.53851 8.68385 10.2266 6 13.5385 6C13.9062 6.00005 14.2732 6.03363 14.6348 6.10031C14.8928 6.14796 14.9499 6.49214 14.7228 6.62133C13.2501 7.45943 12.344 9.01598 12.344 10.7087C12.344 13.6472 15.0172 15.8792 17.9282 15.3248C18.1843 15.276 18.3649 15.5742 18.1992 15.7783Z" fill="#A3AED0"/>
</svg>
