<svg width="25" height="24" viewBox="0 0 25 24" fill="none" xmlns="http://www.w3.org/2000/svg">
<path fill-rule="evenodd" clip-rule="evenodd" d="M16.5385 2C19.8522 2 22.5385 4.68629 22.5385 8V16C22.5385 19.3137 19.8522 22 16.5385 22H8.53851C5.22481 22 2.53851 19.3137 2.53851 16V8C2.53851 4.68629 5.22481 2 8.53851 2H16.5385ZM10.7611 17.7608C10.6293 17.9179 10.4455 18.0047 10.2546 17.9998C10.0644 18.0008 9.88179 17.9147 9.74812 17.7608C9.46865 17.4426 9.46865 16.9271 9.74812 16.609L13.8095 12.0018L9.74812 7.39471C9.46865 7.07654 9.46865 6.5611 9.74812 6.24293C9.88122 6.0876 10.0639 6 10.2546 6C10.4453 6 10.628 6.0876 10.7611 6.24293L15.3289 11.426C15.6084 11.7441 15.6084 12.2596 15.3289 12.5777L10.7611 17.7608Z" fill="#A3AED0"/>
</svg>
