<svg width="25" height="24" viewBox="0 0 25 24" fill="none" xmlns="http://www.w3.org/2000/svg">
<path fill-rule="evenodd" clip-rule="evenodd" d="M16.6085 10.24H21.3985C21.6746 10.24 21.8985 10.4639 21.8985 10.74V17.66C21.8985 19.8691 20.1076 21.66 17.8985 21.66H6.9985C4.78937 21.66 2.9985 19.8691 2.9985 17.66V6.5C2.9985 4.29086 4.78937 2.5 6.9985 2.5H13.6685C13.9446 2.5 14.1685 2.72386 14.1685 3V7.78C14.1658 8.42978 14.4214 9.05401 14.879 9.51535C15.3366 9.97669 15.9587 10.2374 16.6085 10.24ZM6.59851 10.7402C6.04623 10.7402 5.59851 11.1879 5.59851 11.7402L5.60851 13.1302C5.60851 13.6825 6.05623 14.1302 6.60851 14.1302H7.99851C8.5508 14.1302 8.99851 13.6825 8.99851 13.1302V11.7402C8.99851 11.1879 8.5508 10.7402 7.99851 10.7402H6.59851ZM6.28851 15.1807H12.7185C13.1327 15.1807 13.4685 15.5165 13.4685 15.9307C13.4685 16.3449 13.1327 16.6807 12.7185 16.6807H6.28851C5.8743 16.6807 5.53851 16.3449 5.53851 15.9307C5.53851 15.5165 5.8743 15.1807 6.28851 15.1807ZM6.28851 19.1807H14.1885C14.6027 19.1807 14.9385 18.8449 14.9385 18.4307C14.9385 18.0165 14.6027 17.6807 14.1885 17.6807H6.28851C5.8743 17.6807 5.53851 18.0165 5.53851 18.4307C5.53851 18.8449 5.8743 19.1807 6.28851 19.1807Z" fill="#A3AED0"/>
<path d="M15.2185 3.07997V7.64997C15.2185 8.47287 15.8856 9.13997 16.7085 9.13997H21.3285C21.583 9.17877 21.8303 9.0359 21.9238 8.7961C22.0174 8.55629 21.9321 8.28369 21.7185 8.13997L16.1685 2.63997C16.0022 2.47745 15.7528 2.43461 15.5418 2.53234C15.3308 2.63007 15.2021 2.84802 15.2185 3.07997Z" fill="#A3AED0"/>
</svg>
