<svg width="42" height="32" viewBox="0 0 32 32" fill="none" xmlns="http://www.w3.org/2000/svg">
<path d="M9.78534 13.4467L16 7.232L22.2176 13.4494L25.8336 9.83334L16 0L6.16961 9.83037L9.78534 13.4467ZM0 16L3.61613 12.3834L7.232 15.9992L3.61587 19.6154L0 16ZM9.78534 18.5538L16 24.768L22.2175 18.5508L25.8354 22.1649L25.8336 22.1668L16 32L6.16961 22.1696L6.16449 22.1645L9.78534 18.5538ZM24.768 16.0015L28.3841 12.3854L32 16.0013L28.384 19.6174L24.768 16.0015Z" fill="#F3BA2F"/>
<path d="M19.6668 15.9974H19.6683L15.9993 12.3281L13.2874 15.0393L12.9758 15.351L12.3332 15.9937L12.3281 15.9986L12.3332 16.0039L15.9993 19.6705L19.6685 16.0012L19.6703 15.9992L19.6668 15.9974Z" fill="#F3BA2F"/>
</svg>
