<svg width="25" height="24" viewBox="0 0 25 24" fill="none" xmlns="http://www.w3.org/2000/svg">
<g clip-path="url(#clip0_3374_32073)" filter="url(#filter0_d_3374_32073)">
<path fill-rule="evenodd" clip-rule="evenodd" d="M8.13491 5.90159L5.58227 11.4365C5.57256 11.4571 5.56948 11.4803 5.57349 11.5028C5.57749 11.5254 5.58838 11.546 5.60454 11.5616L12.4986 18.3811C12.5182 18.4004 12.5443 18.4113 12.5714 18.4113C12.5985 18.4113 12.6246 18.4004 12.6442 18.3811L19.5383 11.5621C19.5544 11.5464 19.5653 11.5258 19.5693 11.5033C19.5733 11.4807 19.5702 11.4575 19.5605 11.4369L17.0079 5.90201C16.9997 5.88342 16.9864 5.86768 16.9697 5.85665C16.9531 5.84563 16.9337 5.8398 16.9139 5.83985H8.22977C8.20988 5.8396 8.19033 5.84529 8.1735 5.85624C8.15667 5.8672 8.14327 5.88295 8.13491 5.90159V5.90159V5.90159Z" fill="#24B389"/>
<path fill-rule="evenodd" clip-rule="evenodd" d="M13.4567 12.0049C13.4072 12.0087 13.1515 12.0245 12.5811 12.0245C12.1274 12.0245 11.8053 12.0104 11.6923 12.0049C9.93895 11.9253 8.63025 11.6102 8.63025 11.233C8.63025 10.8558 9.93895 10.5411 11.6923 10.4603V11.6911C11.8069 11.6996 12.1352 11.7197 12.5889 11.7197C13.1334 11.7197 13.406 11.6962 13.4551 11.6916V10.4611C15.2047 10.5416 16.5105 10.8566 16.5105 11.233C16.5105 11.6094 15.2051 11.9244 13.4551 12.0045L13.4567 12.0049ZM13.4567 10.3338V9.23236H15.8984V7.55273H9.25058V9.23236H11.6919V10.3334C9.70757 10.4275 8.21533 10.8332 8.21533 11.3194C8.21533 11.8057 9.70757 12.211 11.6919 12.3055V15.8351H13.4563V12.3042C15.4361 12.2101 16.9258 11.8048 16.9258 11.319C16.9258 10.8332 15.4373 10.4279 13.4563 10.3334L13.4567 10.3338Z" fill="white"/>
</g>
<defs>
<filter id="filter0_d_3374_32073" x="0.571289" y="0.839844" width="23.9995" height="22.5713" filterUnits="userSpaceOnUse" color-interpolation-filters="sRGB">
<feFlood flood-opacity="0" result="BackgroundImageFix"/>
<feColorMatrix in="SourceAlpha" type="matrix" values="0 0 0 0 0 0 0 0 0 0 0 0 0 0 0 0 0 0 127 0" result="hardAlpha"/>
<feOffset/>
<feGaussianBlur stdDeviation="2.5"/>
<feComposite in2="hardAlpha" operator="out"/>
<feColorMatrix type="matrix" values="0 0 0 0 0 0 0 0 0 0 0 0 0 0 0 0 0 0 0.1 0"/>
<feBlend mode="normal" in2="BackgroundImageFix" result="effect1_dropShadow_3374_32073"/>
<feBlend mode="normal" in="SourceGraphic" in2="effect1_dropShadow_3374_32073" result="shape"/>
</filter>
<clipPath id="clip0_3374_32073">
<rect width="13.9997" height="12.5714" fill="white" transform="translate(5.57129 5.83984)"/>
</clipPath>
</defs>
</svg>
