<svg width="42" height="40" viewBox="0 0 42 40" fill="none" xmlns="http://www.w3.org/2000/svg">
<g clip-path="url(#clip0_3054_24004)" filter="url(#filter0_d_3054_24004)">
<path fill-rule="evenodd" clip-rule="evenodd" d="M10.8587 6.06105L5.02399 18.7122C5.00179 18.7593 4.99475 18.8124 5.00391 18.8639C5.01307 18.9154 5.03794 18.9625 5.0749 18.9983L20.8331 34.5855C20.8778 34.6299 20.9375 34.6546 20.9995 34.6546C21.0615 34.6546 21.1211 34.6299 21.1659 34.5855L36.9241 18.9993C36.961 18.9635 36.9859 18.9164 36.995 18.8649C37.0042 18.8134 36.9972 18.7602 36.975 18.7132L31.1402 6.06202C31.1214 6.01954 31.0911 5.98354 31.053 5.95835C31.0149 5.93315 30.9706 5.91982 30.9253 5.91994H11.0755C11.0301 5.91936 10.9854 5.93237 10.9469 5.95741C10.9084 5.98245 10.8778 6.01844 10.8587 6.06105V6.06105V6.06105Z" fill="#24B389"/>
<path fill-rule="evenodd" clip-rule="evenodd" d="M23.0255 20.0123C22.9123 20.0211 22.3278 20.0571 21.024 20.0571C19.987 20.0571 19.2507 20.025 18.9924 20.0123C14.9847 19.8304 11.9933 19.1102 11.9933 18.248C11.9933 17.3858 14.9847 16.6666 18.9924 16.4817V19.2951C19.2544 19.3146 20.0049 19.3603 21.0419 19.3603C22.2864 19.3603 22.9095 19.3068 23.0217 19.2961V16.4836C27.0209 16.6676 30.0056 17.3877 30.0056 18.248C30.0056 19.1083 27.0218 19.8284 23.0217 20.0114L23.0255 20.0123ZM23.0255 16.1927V13.6751H28.6066V9.83594H13.4112V13.6751H18.9914V16.1917C14.4558 16.4068 11.0449 17.3342 11.0449 18.4455C11.0449 19.5569 14.4558 20.4834 18.9914 20.6994V28.767H23.0245V20.6965C27.5498 20.4814 30.955 19.555 30.955 18.4446C30.955 17.3342 27.5526 16.4077 23.0245 16.1917L23.0255 16.1927Z" fill="white"/>
</g>
<defs>
<filter id="filter0_d_3054_24004" x="0" y="0.919922" width="42" height="38.7344" filterUnits="userSpaceOnUse" color-interpolation-filters="sRGB">
<feFlood flood-opacity="0" result="BackgroundImageFix"/>
<feColorMatrix in="SourceAlpha" type="matrix" values="0 0 0 0 0 0 0 0 0 0 0 0 0 0 0 0 0 0 127 0" result="hardAlpha"/>
<feOffset/>
<feGaussianBlur stdDeviation="2.5"/>
<feComposite in2="hardAlpha" operator="out"/>
<feColorMatrix type="matrix" values="0 0 0 0 0 0 0 0 0 0 0 0 0 0 0 0 0 0 0.1 0"/>
<feBlend mode="normal" in2="BackgroundImageFix" result="effect1_dropShadow_3054_24004"/>
<feBlend mode="normal" in="SourceGraphic" in2="effect1_dropShadow_3054_24004" result="shape"/>
</filter>
<clipPath id="clip0_3054_24004">
<rect width="32" height="28.7347" fill="white" transform="translate(5 5.91992)"/>
</clipPath>
</defs>
</svg>
