<svg width="45" height="46" viewBox="0 0 45 46" fill="none" xmlns="http://www.w3.org/2000/svg">
<rect y="0.5" width="45" height="45" rx="14" fill="#707EAE"/>
<path d="M27.3865 16.751C26.9033 16.751 26.5115 17.1427 26.5115 17.626C26.5115 18.1092 26.9033 18.501 27.3865 18.501C29.4773 18.5136 31.1708 20.202 31.1899 22.2926V24.626C31.1708 26.7166 29.4773 28.405 27.3865 28.4176H24.7965L26.3949 26.831C26.7361 26.4894 26.7361 25.9359 26.3949 25.5943C26.2324 25.4275 26.0094 25.3335 25.7765 25.3335C25.5437 25.3335 25.3207 25.4275 25.1582 25.5943L22.0665 28.6743C21.9875 28.7552 21.9242 28.8502 21.8799 28.9543C21.7985 29.1725 21.7985 29.4128 21.8799 29.631C21.9242 29.7351 21.9875 29.8301 22.0665 29.911L25.1582 32.991C25.4998 33.3322 26.0533 33.3322 26.3949 32.991C26.7361 32.6494 26.7361 32.0959 26.3949 31.7543L24.7965 30.1676H27.3865C30.4437 30.1549 32.9207 27.6831 32.9399 24.626V22.2926C32.9207 19.2355 30.4437 16.7637 27.3865 16.751Z" fill="white"/>
<path d="M23.56 17.9645C23.6414 17.7463 23.6414 17.506 23.56 17.2878C23.5116 17.186 23.4488 17.0916 23.3733 17.0078L20.2817 13.9278C20.1192 13.7611 19.8962 13.667 19.6633 13.667C19.4305 13.667 19.2075 13.7611 19.045 13.9278C18.7038 14.2694 18.7038 14.8229 19.045 15.1645L20.6433 16.7512H18.0533C14.9961 16.7639 12.5192 19.2357 12.5 22.2928V24.6262C12.5192 27.6833 14.9961 30.1551 18.0533 30.1678C18.5366 30.1678 18.9283 29.7761 18.9283 29.2928C18.9283 28.8096 18.5366 28.4178 18.0533 28.4178C15.9626 28.4052 14.2691 26.7168 14.25 24.6262V22.2928C14.2691 20.2022 15.9626 18.5138 18.0533 18.5012H20.6317L19.045 20.0878C18.7038 20.4294 18.7038 20.9829 19.045 21.3245C19.3866 21.6657 19.94 21.6657 20.2817 21.3245L23.3733 18.2445C23.4488 18.1607 23.5116 18.0664 23.56 17.9645Z" fill="white"/>
</svg>
