<svg width="32" height="32" viewBox="0 0 32 32" fill="none" xmlns="http://www.w3.org/2000/svg">
<path d="M18.7233 3H13.2767C7.60103 3 3 7.60103 3 13.2767V18.7233C3 24.399 7.60103 29 13.2767 29H18.7233C24.399 29 29 24.399 29 18.7233V13.2767C29 10.5511 27.9173 7.93722 25.99 6.00997C24.0628 4.08272 21.4489 3 18.7233 3Z" fill="#A3AED0"/>
<path d="M11.2292 11.4088L10.8568 11.8182L10.9828 12.3166C11.1139 12.8097 11.1139 12.8097 11.1139 15.769V18.7335L10.8516 18.9802C10.4948 19.3318 10.0383 19.4734 9.27764 19.4734C8.80529 19.4734 8.6848 19.4523 8.44876 19.3474C7.9137 19.1059 7.59879 18.5498 7.59879 17.8572C7.59879 17.642 7.65657 17.2329 7.72996 16.9024C7.80334 16.5823 7.87673 16.2518 7.89261 16.1677L7.9189 16.0103L7.79814 16.1573C7.65657 16.32 7.23159 17.3589 7.09495 17.8731C6.99007 18.2877 6.96378 19.3214 7.05825 19.6308C7.24199 20.2185 7.71408 20.7116 8.27543 20.9006C8.71602 21.0422 9.56078 21.0318 10.0227 20.8743C10.9305 20.5594 11.7386 19.7513 12.0061 18.8805C12.1058 18.5656 12.111 18.3874 12.111 15.9213V13.3032L12.2684 12.9308C12.3577 12.7314 12.4259 12.5425 12.4259 12.511C12.4259 12.4847 12.3577 12.3639 12.2736 12.2435C12.0899 11.9759 11.8327 11.4617 11.749 11.1941C11.7123 11.0893 11.6649 11 11.6389 11C11.6175 10.9995 11.4286 11.1832 11.2292 11.4088Z" fill="#F4F7FE"/>
<path d="M17.2734 12.0642C17.0215 12.4577 17.0111 12.4892 17.0478 12.72C17.1267 13.2236 17.1582 15.0128 17.1004 15.6215C16.9955 16.739 16.6965 17.6205 16.1874 18.3026C16.0667 18.4652 15.9618 18.5912 15.9514 18.5808C15.941 18.5704 15.9618 18.3762 15.9985 18.1506C16.0352 17.925 16.0667 17.3847 16.0615 16.9542C16.0615 16.0361 15.967 15.59 15.6261 14.9027C15.0751 13.7745 13.8158 12.4525 13.4905 12.657C13.3437 12.7463 13.1756 13.0872 13.0759 13.4807C12.9291 14.0788 13.034 14.4462 13.4957 14.9657C13.7161 15.2176 13.758 15.2439 14.0885 15.3014C14.7181 15.417 14.8232 15.4903 15.1641 16.0046C15.5313 16.5712 15.7099 17.4685 15.6417 18.4181C15.605 18.9532 15.6102 18.948 14.9544 19.3782C14.4138 19.735 13.8002 20.0184 13.0392 20.27C12.7191 20.3749 12.4305 20.4746 12.4097 20.4957C12.3256 20.5691 13.0918 20.6742 13.7109 20.6687C14.7287 20.6635 15.3427 20.485 15.9777 20.0025C16.4394 19.6509 16.8487 19.1367 17.153 18.5282C17.4627 17.8987 17.6146 17.3477 17.662 16.6393L17.7039 16.1147L17.7721 16.5082C17.8928 17.1851 18.1393 17.9825 18.386 18.4967C18.5802 18.8902 18.7009 19.0633 19.0262 19.3886C19.7294 20.0915 20.4009 20.4379 21.2719 20.5535C21.7758 20.6164 21.9436 20.6006 23.2342 20.3174C24.0737 20.1337 24.8818 20.0236 25.3487 20.0236H25.7422L26.0149 19.3311C26.1776 18.9113 26.2616 18.6282 26.2247 18.6175C25.9938 18.5389 25.3799 18.0246 24.5929 17.2585C23.2706 15.9728 22.7985 15.6897 22.0008 15.7316C21.3661 15.7683 20.9567 16.0254 20.5369 16.6549C20.1856 17.1903 20.1801 17.2114 20.4742 17.0854C21.3869 16.6971 22.0008 16.7442 22.7196 17.2585C23.2547 17.6416 24.0891 18.5597 23.9894 18.6542C23.8423 18.7905 22.3839 19.0373 21.7122 19.0373C21.3083 19.0425 21.135 19.0162 20.7941 18.9009C20.5632 18.8223 20.2905 18.7067 20.1906 18.6438C19.3247 18.1243 18.627 17.2114 18.3069 16.1777C18.076 15.417 17.777 13.7378 17.604 12.232L17.541 11.6548L17.2734 12.0642Z" fill="#F4F7FE"/>
</svg>
