<svg width="32" height="32" viewBox="0 0 32 32" fill="none" xmlns="http://www.w3.org/2000/svg">
<path d="M16 29C23.1798 29 29 23.1798 29 16C29 8.8203 23.1798 3 16 3C8.8203 3 3 8.8203 3 16C3 23.1798 8.8203 29 16 29Z" fill="#2E2482"/>
<rect x="7" y="7" width="18" height="18" rx="9" fill="#F4F7FE"/>
<path d="M21.9259 21.9252L18.963 18.9622M13.037 13.0363L10.0741 10.0733M18.963 13.0363L21.9259 10.0733M10.0741 21.9252L13.037 18.9622M24.8889 15.9992C24.8889 17.1665 24.659 18.3224 24.2123 19.4009C23.7655 20.4793 23.1108 21.4592 22.2854 22.2846C21.46 23.11 20.4801 23.7648 19.4016 24.2115C18.3232 24.6582 17.1673 24.8881 16 24.8881C14.8327 24.8881 13.6768 24.6582 12.5984 24.2115C11.5199 23.7648 10.54 23.11 9.71459 22.2846C8.88918 21.4592 8.23443 20.4793 7.78773 19.4009C7.34102 18.3224 7.1111 17.1665 7.1111 15.9992C7.1111 13.6418 8.0476 11.3808 9.71459 9.71385C11.3816 8.04686 13.6425 7.11035 16 7.11035C18.3575 7.11035 20.6184 8.04686 22.2854 9.71385C23.9524 11.3808 24.8889 13.6418 24.8889 15.9992ZM19.9506 15.9992C19.9506 17.047 19.5344 18.0519 18.7935 18.7927C18.0526 19.5336 17.0478 19.9499 16 19.9499C14.9522 19.9499 13.9474 19.5336 13.2065 18.7927C12.4656 18.0519 12.0494 17.047 12.0494 15.9992C12.0494 14.9515 12.4656 13.9466 13.2065 13.2057C13.9474 12.4648 14.9522 12.0486 16 12.0486C17.0478 12.0486 18.0526 12.4648 18.7935 13.2057C19.5344 13.9466 19.9506 14.9515 19.9506 15.9992Z" stroke="#2E2482" stroke-width="2"/>
</svg>
