<svg width="45" height="46" viewBox="0 0 45 46" fill="none" xmlns="http://www.w3.org/2000/svg">
<rect y="0.5" width="45" height="45" rx="14" fill="#2E2482"/>
<path fill-rule="evenodd" clip-rule="evenodd" d="M25.0425 13.25H20.9575C16.7008 13.25 13.25 16.7008 13.25 20.9575V25.0425C13.25 29.2992 16.7008 32.75 20.9575 32.75H25.0425C29.2318 32.75 32.6404 29.4077 32.7474 25.2443H32.7476V25.2386C32.7492 25.1734 32.75 25.1081 32.75 25.0425V20.9575C32.75 18.9134 31.938 16.9529 30.4925 15.5075C29.0471 14.062 27.0866 13.25 25.0425 13.25ZM32.7476 23.7483V25.2386C32.7475 25.2405 32.7475 25.2424 32.7474 25.2443H26.4395C25.3349 25.2443 24.4395 24.3488 24.4395 23.2443V22.9109C24.4395 21.8063 25.3349 20.9109 26.4395 20.9109H32.7476V22.3039H26.6097C26.2108 22.3039 25.8875 22.6272 25.8875 23.0261C25.8875 23.425 26.2108 23.7483 26.6097 23.7483H32.7476ZM32.7476 23.7483V22.3039H32.7486V23.7483H32.7476Z" fill="white"/>
</svg>
