<svg width="45" height="46" viewBox="0 0 45 46" fill="none" xmlns="http://www.w3.org/2000/svg">
<rect y="0.5" width="45" height="45" rx="14" fill="#24B389"/>
<path fill-rule="evenodd" clip-rule="evenodd" d="M19 13C15.6863 13 13 15.6863 13 19V27.12C13 30.4337 15.6863 33.12 19 33.12H27.12C30.4337 33.12 33.12 30.4337 33.12 27.12V19C33.12 15.6863 30.4337 13 27.12 13H19ZM19.619 18.2826H27.0061C27.442 18.2826 27.7954 18.6359 27.7954 19.0718V26.48C27.7873 26.6845 27.705 26.879 27.5638 27.0272C27.4127 27.1768 27.2083 27.2601 26.9956 27.2587C26.7872 27.2587 26.5876 27.1752 26.4412 27.0269C26.2949 26.8786 26.2141 26.6778 26.2169 26.4695V20.9554L19.6505 27.648C19.3396 27.9378 18.855 27.9292 18.5544 27.6287C18.2539 27.3281 18.2453 26.8436 18.5351 26.5326L25.1646 19.9031H19.6295C19.182 19.906 18.8169 19.5456 18.814 19.0981C18.8111 18.6506 19.1715 18.2855 19.619 18.2826Z" fill="white"/>
</svg>
