<svg width="32" height="32" viewBox="0 0 32 32" fill="none" xmlns="http://www.w3.org/2000/svg">
<rect width="32" height="32" rx="12" fill="#2E2482"/>
<path d="M13.9469 16.0003H14.0003C15.473 16.0003 16.6669 14.8064 16.6669 13.3336V12.287C16.6652 11.6888 16.425 11.116 15.9995 10.6955C15.574 10.2751 14.9984 10.0416 14.4003 10.047H13.5203C12.2847 10.0506 11.2839 11.0514 11.2803 12.287V13.3336C11.2803 14.8064 12.4742 16.0003 13.9469 16.0003Z" fill="white"/>
<path d="M19.667 15.4994C20.7716 15.4994 21.667 14.604 21.667 13.4994V12.7327C21.667 11.8101 20.923 11.0601 20.0003 11.0527H19.3337C18.411 11.0601 17.667 11.8101 17.667 12.7327V13.4994C17.667 14.604 18.5624 15.4994 19.667 15.4994Z" fill="white"/>
<path d="M22.9269 18.28L22.8202 17.7533C22.6941 17.0303 22.0675 16.502 21.3336 16.5H17.2669C16.7699 16.5011 16.3067 16.7515 16.0336 17.1667H11.3336C10.862 17.167 10.4086 17.3484 10.0669 17.6733C9.77331 17.9423 9.56671 18.2929 9.47355 18.68C9.47355 18.7133 9.47355 18.7467 9.47355 18.7733V18.9467L9.33355 19.48C9.19096 20.0635 9.31817 20.6802 9.68 21.1596C10.0418 21.639 10.6 21.9305 11.2002 21.9533H16.7202C16.8619 21.9529 17.0029 21.9349 17.1402 21.9H17.2269C17.3271 21.8715 17.4251 21.8358 17.5202 21.7933L17.6269 21.7333C17.7065 21.6884 17.7823 21.6371 17.8536 21.58L17.9602 21.4933C18.0258 21.4322 18.0881 21.3677 18.1469 21.3C18.1469 21.2667 18.2069 21.24 18.2336 21.2C18.3081 21.1021 18.3728 20.9972 18.4269 20.8867C18.4553 20.8261 18.4798 20.7637 18.5002 20.7C18.5264 20.6393 18.5487 20.5769 18.5669 20.5133C18.5669 20.4467 18.6002 20.38 18.6136 20.3133V20.2133H21.4669C21.9377 20.1994 22.3767 19.9726 22.6605 19.5968C22.9443 19.2209 23.0423 18.7366 22.9269 18.28Z" fill="white"/>
</svg>
