<svg width="14" height="14" viewBox="0 0 14 14" fill="none" xmlns="http://www.w3.org/2000/svg">
<path fill-rule="evenodd" clip-rule="evenodd" d="M6.59698 9.64833L4.42115 7.47833C4.32889 7.38639 4.27703 7.2615 4.27703 7.13125C4.27703 7.001 4.32889 6.87611 4.42115 6.78417C4.61519 6.59824 4.92128 6.59824 5.11532 6.78417L6.45115 8.12583V2.24C6.45115 1.96938 6.67053 1.75 6.94115 1.75C7.21177 1.75 7.43115 1.96938 7.43115 2.24V8.12583L8.76698 6.78417C8.96102 6.59824 9.26711 6.59824 9.46115 6.78417C9.55341 6.87611 9.60527 7.001 9.60527 7.13125C9.60527 7.2615 9.55341 7.38639 9.46115 7.47833L7.28532 9.64833C7.19552 9.74218 7.07104 9.79493 6.94115 9.79417C6.81098 9.79635 6.68595 9.74338 6.59698 9.64833ZM9.98615 4.91167H10.692C12.1598 4.94356 13.3255 6.15624 13.2995 7.62417V9.84667C13.3255 11.3146 12.1598 12.5273 10.692 12.5592L3.19032 12.5125C1.72251 12.4806 0.556772 11.2679 0.58282 9.8V7.5775C0.565606 6.86943 0.830876 6.18362 1.32008 5.67143C1.80929 5.15924 2.48221 4.86279 3.19032 4.8475H3.89615C4.16677 4.8475 4.38615 5.06688 4.38615 5.3375C4.38615 5.60812 4.16677 5.8275 3.89615 5.8275H3.19032C2.74154 5.84113 2.31688 6.03384 2.01111 6.36262C1.70534 6.69141 1.5439 7.12891 1.56282 7.5775V9.7825C1.5439 10.2311 1.70534 10.6686 2.01111 10.9974C2.31688 11.3262 2.74154 11.5189 3.19032 11.5325L10.692 11.6142C11.1408 11.6005 11.5654 11.4078 11.8712 11.079C12.177 10.7503 12.3384 10.3128 12.3195 9.86417V7.64167C12.3384 7.19307 12.177 6.75557 11.8712 6.42679C11.5654 6.09801 11.1408 5.9053 10.692 5.89167H9.98615C9.71553 5.89167 9.49615 5.67229 9.49615 5.40167C9.49615 5.13105 9.71553 4.91167 9.98615 4.91167Z" fill="#151A38"/>
</svg>
