<svg width="32" height="32" viewBox="0 0 32 32" fill="none" xmlns="http://www.w3.org/2000/svg">
<rect width="32" height="32" rx="12" fill="#24B389"/>
<path d="M24.0001 16.3878C24.0001 16.8674 23.6114 17.2561 23.1318 17.2561C22.6523 17.2561 22.2635 16.8674 22.2635 16.3878V14.7091L17.7252 19.2822C17.1107 19.8945 16.1168 19.8945 15.5023 19.2822L13.1869 16.9667L10.2809 19.7453C10.1198 19.9104 9.89807 20.0024 9.66734 20C9.43688 20.001 9.21569 19.9092 9.05374 19.7453C8.71516 19.4062 8.71516 18.8571 9.05374 18.5181L12.0291 15.5427C12.6436 14.9303 13.6375 14.9303 14.252 15.5427L16.5674 17.8581L20.689 13.7366H19.6586C19.1791 13.7366 18.7903 13.3479 18.7903 12.8683C18.7903 12.3888 19.1791 12 19.6586 12H23.1318C23.6087 12.0062 23.9939 12.3914 24.0001 12.8683V16.3878Z" fill="white"/>
</svg>
