<svg width="12" height="16" viewBox="0 0 12 16" fill="none" xmlns="http://www.w3.org/2000/svg">
<path fill-rule="evenodd" clip-rule="evenodd" d="M11.865 3.1475C11.8655 3.7802 11.6393 4.39215 11.2275 4.8725L9.85501 6.44C9.01367 7.42477 9.01367 8.87523 9.85501 9.86L11.1975 11.465C11.8609 12.2512 12.0072 13.351 11.5725 14.2832C11.1377 15.2155 10.2011 15.8103 9.17251 15.8075H3.39001C1.93077 15.8034 0.750009 14.6192 0.750015 13.16C0.747912 12.5387 0.968794 11.9373 1.37251 11.465L2.73001 9.845C3.55364 8.85942 3.55364 7.42558 2.73001 6.44L1.37251 4.82C0.968794 4.34774 0.747912 3.7463 0.750015 3.125C0.762337 1.67454 1.93951 0.504057 3.39001 0.5H9.22501C10.6843 0.504134 11.865 1.68825 11.865 3.1475ZM10.395 12.1325L9.06001 10.535C7.88153 9.16157 7.87835 7.13462 9.05251 5.7575L10.4025 4.19C10.6551 3.90155 10.7937 3.53088 10.7925 3.1475C10.801 2.2697 10.1026 1.54797 9.22501 1.5275H3.39001C2.76915 1.52778 2.20468 1.88775 1.94257 2.45057C1.68046 3.01339 1.76818 3.6771 2.16751 4.1525L3.53251 5.7725C4.68146 7.14362 4.68146 9.14137 3.53251 10.5125L2.16751 12.1325C1.76818 12.6079 1.68046 13.2716 1.94257 13.8344C2.20468 14.3972 2.76915 14.7572 3.39001 14.7575H9.17251C10.0548 14.7575 10.77 14.0423 10.77 13.16C10.7731 12.7835 10.6399 12.4185 10.395 12.1325Z" fill="white"/>
<path d="M8.40029 12.8452H4.21529C3.95147 12.8135 3.75293 12.5897 3.75293 12.324C3.75293 12.0583 3.95147 11.8344 4.21529 11.8027H8.40029C8.66412 11.8344 8.86266 12.0583 8.86266 12.324C8.86266 12.5897 8.66412 12.8135 8.40029 12.8452Z" fill="white"/>
</svg>
