<svg width="45" height="46" viewBox="0 0 45 46" fill="none" xmlns="http://www.w3.org/2000/svg">
<rect y="0.5" width="45" height="45" rx="14" fill="#24B389"/>
<path d="M33.7504 23.5454C33.7504 24.2197 33.2037 24.7664 32.5294 24.7664C31.855 24.7664 31.3083 24.2197 31.3083 23.5454V21.1847L24.9263 27.6155C24.0622 28.4766 22.6645 28.4766 21.8004 27.6155L18.5443 24.3594L14.4578 28.2668C14.2312 28.4989 13.9194 28.6283 13.595 28.6249C13.2709 28.6265 12.9598 28.4974 12.7321 28.2668C12.256 27.79 12.256 27.0177 12.7321 26.541L16.9162 22.3569C17.7803 21.4958 19.1781 21.4958 20.0421 22.3569L23.2982 25.613L29.0942 19.8171H27.6452C26.9708 19.8171 26.4241 19.2704 26.4241 18.596C26.4241 17.9217 26.9708 17.375 27.6452 17.375H32.5294C33.2001 17.3838 33.7417 17.9253 33.7504 18.596V23.5454Z" fill="white"/>
</svg>
