<svg width="32" height="32" viewBox="0 0 32 32" fill="none" xmlns="http://www.w3.org/2000/svg">
<rect width="32" height="32" rx="12" fill="#24B389"/>
<path d="M25.0351 16.8641L21.3151 13.1521C21.1674 13.0014 20.9661 12.9151 20.7551 12.9121C20.5413 12.913 20.3368 12.9994 20.1871 13.1521L16.4671 16.8641C16.3157 17.0143 16.2305 17.2188 16.2305 17.4321C16.2305 17.6454 16.3157 17.8499 16.4671 18.0001C16.6173 18.1516 16.8218 18.2367 17.0351 18.2367C17.2484 18.2367 17.4529 18.1516 17.6031 18.0001L19.9551 15.6481V22.4001C19.9551 22.8419 20.3133 23.2001 20.7551 23.2001C21.1969 23.2001 21.5551 22.8419 21.5551 22.4001V15.6481L23.8991 18.0001C24.2128 18.3138 24.7214 18.3138 25.0351 18.0001C25.3488 17.6864 25.3488 17.1778 25.0351 16.8641Z" fill="white"/>
<path d="M16.8033 13.8328C16.6531 13.6813 16.4486 13.5961 16.2353 13.5961C16.022 13.5961 15.8175 13.6813 15.6673 13.8328L13.3233 16.1848V9.60078C13.3233 9.15895 12.9651 8.80078 12.5233 8.80078C12.0814 8.80078 11.7233 9.15895 11.7233 9.60078V16.1848L9.37127 13.8328C9.05758 13.5191 8.54897 13.5191 8.23527 13.8328C7.92158 14.1465 7.92158 14.6551 8.23527 14.9688L11.9553 18.6808C12.2673 18.991 12.7712 18.991 13.0833 18.6808L16.8033 14.9688C16.9547 14.8186 17.0399 14.6141 17.0399 14.4008C17.0399 14.1875 16.9547 13.983 16.8033 13.8328Z" fill="white"/>
</svg>
